<svg xmlns="http://www.w3.org/2000/svg" viewBox="0 0 512 512">
  <defs>
    <linearGradient id="bg" x1="0" x2="1" y1="0" y2="1">
      <stop offset="0%" stop-color="#f5f7fb" />
      <stop offset="100%" stop-color="#406f96" />
    </linearGradient>
    <linearGradient id="moon" x1="0" x2="1" y1="0" y2="1">
      <stop offset="0%" stop-color="#ffffff" stop-opacity="0.95" />
      <stop offset="100%" stop-color="#d2e8ff" stop-opacity="0.85" />
    </linearGradient>
  </defs>
  <rect width="512" height="512" rx="120" fill="url(#bg)" />
  <circle cx="324" cy="180" r="72" fill="url(#moon)" />
  <path
    d="M186 154c-25 0-45 20-45 45 0 15 8 29 20 38-46 18-79 63-79 115 0 68 55 123 123 123 50 0 93-29 113-71-11 4-23 7-36 7-54 0-98-44-98-98 0-37 21-70 52-87-14-7-31-11-50-11Z"
    fill="#1d354a"
    fill-opacity="0.88"
  />
  <path
    d="M197 334c22-26 62-35 93-21 9 4 18 10 24 18 8 11 27 9 32-4 18-47 65-80 120-80v22c-48 0-90 30-106 75-10 27-44 36-66 15-19-18-54-19-74-1l-23-24Z"
    fill="#ffffff"
    fill-opacity="0.92"
  />
</svg>
